<svg width="49" height="40" viewBox="0 0 49 40" fill="none" xmlns="http://www.w3.org/2000/svg">
<path d="M16.9219 0.108212C11.0637 1.007 6.28777 3.36633 3.22982 6.92404C1.85547 8.51565 1.08239 9.86383 0.48111 11.755C-0.17171 13.7586 -0.15453 16.455 0.498289 18.5521C0.755981 19.376 1.25419 20.5557 1.59777 21.1736C2.37085 22.5592 4.44956 24.8811 5.8411 25.8923C8.41802 27.7835 12.0944 29.3376 15.4272 29.9555C16.166 30.1053 16.2175 30.3488 15.7365 31.5097C15.307 32.5208 14.2247 33.6818 13.1767 34.2622C12.1116 34.8614 11.8539 35.3857 12.3865 35.9475C12.5754 36.1722 13.0049 36.2471 14.0013 36.2471C19.4301 36.2471 24.2747 33.9439 26.4049 30.3675C27.1436 29.1129 27.2123 28.701 26.697 28.3265C26.1988 27.9333 25.7177 28.1392 25.3398 28.9257C24.4121 30.8918 22.3677 32.577 19.7736 33.532C18.9662 33.8128 16.5611 34.3746 16.1144 34.3746C15.9942 34.3746 16.2175 33.8877 16.5783 33.3073C16.9562 32.7268 17.3857 31.828 17.5231 31.3037C17.8152 30.2551 17.8667 28.8321 17.6262 28.6823C17.5403 28.6074 16.7844 28.4388 15.9426 28.289C13.6234 27.8396 11.5103 27.1281 9.6034 26.1544C5.73802 24.1509 3.50469 21.8477 2.14752 18.4585C1.76957 17.5597 1.71803 17.1478 1.71803 15.1817C1.71803 12.504 1.9929 11.5678 3.40162 9.43316C5.49751 6.24994 9.17391 3.83444 13.8983 2.54243C22.9862 0.0333099 33.4828 3.08545 37.6575 9.43316C38.9116 11.3431 39.2895 12.5228 39.3926 14.8072C39.4441 16.3801 39.3926 16.8669 39.0834 17.8968C38.379 20.2186 37.0905 22.0911 34.9431 23.8887C33.5516 25.0684 33.3454 25.4616 33.8608 26.0233C34.2903 26.4915 34.6167 26.3791 35.8364 25.3867C38.1557 23.4955 39.8736 20.9864 40.6639 18.3649C41.2308 16.455 41.1964 13.665 40.578 11.755C38.8428 6.36229 33.6031 2.18666 26.5252 0.576328C24.79 0.183109 23.8108 0.0707626 21.2167 0.0145874C19.4644 -0.0228615 17.5403 0.0145874 16.9219 0.108212Z" fill="black"/>
<path d="M38.758 6.3253C39.239 6.86832 39.7544 7.54241 39.909 7.82328C40.0636 8.10416 40.287 8.38503 40.4072 8.42248C40.9398 8.64718 43.1387 10.3511 43.9977 11.1937C45.2175 12.4296 46.5575 14.6204 46.9869 16.1371C47.3649 17.504 47.4336 19.6761 47.1416 21.0617C46.9182 22.1852 46.0764 23.9641 45.2175 25.1812C43.0013 28.3269 38.088 31.0795 33.02 32.0344C32.1783 32.1842 31.4224 32.3528 31.3365 32.4277C31.0959 32.5775 31.1475 33.9257 31.4395 35.0304C31.5942 35.5734 32.0065 36.4909 32.3844 37.0714C32.8483 37.8017 32.9857 38.12 32.8139 38.12C32.1439 38.12 29.086 37.2774 28.1754 36.8467C27.0244 36.3037 25.4267 35.1802 24.9285 34.581L24.6021 34.1878L23.9493 34.5997C23.5713 34.8244 23.2793 35.0679 23.2793 35.1428C23.2793 35.2177 23.726 35.7232 24.2757 36.2475C25.4611 37.4085 27.8662 38.7379 29.6529 39.2248C32.5218 40.0112 36.0608 40.2546 36.5762 39.6929C37.0744 39.1499 36.8511 38.6068 35.9234 38.0826C34.7552 37.4459 33.8103 36.4909 33.3465 35.4611C32.728 34.1129 32.7624 33.8508 33.5526 33.701C36.8682 33.083 40.5618 31.5102 43.1216 29.6377C43.6885 29.2257 44.7021 28.2895 45.3721 27.5592C49.2718 23.3274 50.0621 17.8598 47.468 13.0662C46.0593 10.4822 42.7952 7.57986 39.5826 6.08188C38.7408 5.66993 38.0193 5.35161 37.9677 5.35161C37.9334 5.35161 38.277 5.80101 38.758 6.3253Z" fill="black"/>
<path d="M15.7882 6.71943L15.29 7.18756V15.2767V23.3658L15.7882 23.8339C16.1834 24.1897 16.4239 24.2833 16.8534 24.2084C17.5405 24.0773 29.068 16.9245 29.6005 16.2878C30.0816 15.6886 30.0816 14.8647 29.6005 14.2655C29.068 13.6289 17.5577 6.47601 16.8534 6.34494C16.4239 6.27004 16.1834 6.36366 15.7882 6.71943Z" fill="black"/>
</svg>
