<svg width="50" height="40" viewBox="0 0 50 40" fill="none" xmlns="http://www.w3.org/2000/svg">
<path d="M17.9131 0.109188C12.0549 1.00798 7.27898 3.3673 4.22103 6.92501C2.84668 8.51662 2.0736 9.86481 1.47232 11.756C0.819501 13.7596 0.836681 16.4559 1.4895 18.5531C1.74719 19.377 2.2454 20.5567 2.58899 21.1746C3.36206 22.5602 5.44078 24.8821 6.83231 25.8932C9.40923 27.7844 13.0856 29.3386 16.4185 29.9565C17.1572 30.1063 17.2087 30.3497 16.7277 31.5107C16.2982 32.5218 15.2159 33.6827 14.1679 34.2632C13.1028 34.8624 12.8451 35.3867 13.3777 35.9485C13.5667 36.1731 13.9961 36.248 14.9926 36.248C20.4213 36.248 25.2659 33.9449 27.3961 30.3685C28.1348 29.1139 28.2036 28.702 27.6882 28.3275C27.19 27.9342 26.7089 28.1402 26.331 28.9267C25.4033 30.8928 23.3589 32.578 20.7649 33.533C19.9574 33.8138 17.5523 34.3756 17.1056 34.3756C16.9854 34.3756 17.2087 33.8887 17.5695 33.3083C17.9474 32.7278 18.3769 31.829 18.5143 31.3047C18.8064 30.2561 18.8579 28.833 18.6174 28.6832C18.5315 28.6083 17.7756 28.4398 16.9338 28.29C14.6146 27.8406 12.5015 27.1291 10.5946 26.1554C6.72924 24.1518 4.49591 21.8487 3.13873 18.4595C2.76078 17.5607 2.70924 17.1488 2.70924 15.1826C2.70924 12.505 2.98411 11.5688 4.39283 9.43414C6.48872 6.25092 10.1651 3.83542 14.8895 2.54341C23.9774 0.0342865 34.4741 3.08643 38.6487 9.43414C39.9028 11.3441 40.2807 12.5237 40.3838 14.8082C40.4353 16.381 40.3838 16.8679 40.0746 17.8977C39.3702 20.2196 38.0817 22.0921 35.9343 23.8897C34.5428 25.0693 34.3366 25.4626 34.852 26.0243C35.2815 26.4924 35.6079 26.3801 36.8276 25.3877C39.1469 23.4965 40.8648 20.9873 41.6551 18.3659C42.222 16.4559 42.1876 13.6659 41.5692 11.756C39.834 6.36327 34.5943 2.18764 27.5164 0.577305C25.7813 0.184086 24.802 0.0717392 22.2079 0.015564C20.4556 -0.0218849 18.5315 0.015564 17.9131 0.109188Z" fill="white"/>
<path d="M39.7492 6.32628C40.2302 6.8693 40.7456 7.54339 40.9002 7.82426C41.0548 8.10513 41.2782 8.38601 41.3984 8.42346C41.931 8.64815 44.13 10.3521 44.9889 11.1947C46.2087 12.4306 47.5487 14.6214 47.9782 16.1381C48.3561 17.505 48.4248 19.6771 48.1328 21.0627C47.9094 22.1862 47.0676 23.965 46.2087 25.1821C43.9925 28.3279 39.0792 31.0805 34.0113 32.0354C33.1695 32.1852 32.4136 32.3537 32.3277 32.4286C32.0872 32.5784 32.1387 33.9266 32.4307 35.0314C32.5854 35.5744 32.9977 36.4919 33.3756 37.0724C33.8395 37.8027 33.9769 38.121 33.8051 38.121C33.1351 38.121 30.0772 37.2784 29.1667 36.8477C28.0156 36.3047 26.4179 35.1812 25.9197 34.582L25.5933 34.1888L24.9405 34.6007C24.5626 34.8254 24.2705 35.0688 24.2705 35.1437C24.2705 35.2186 24.7172 35.7242 25.2669 36.2485C26.4523 37.4094 28.8574 38.7389 30.6441 39.2257C33.5131 40.0122 37.052 40.2556 37.5674 39.6939C38.0656 39.1508 37.8423 38.6078 36.9146 38.0835C35.7464 37.4469 34.8015 36.4919 34.3377 35.4621C33.7192 34.1139 33.7536 33.8517 34.5438 33.7019C37.8595 33.084 41.553 31.5111 44.1128 29.6386C44.6797 29.2267 45.6933 28.2905 46.3633 27.5602C50.263 23.3284 51.0533 17.8608 48.4592 13.0672C47.0505 10.4832 43.7864 7.58084 40.5738 6.08286C39.732 5.67091 39.0105 5.35259 38.9589 5.35259C38.9246 5.35259 39.2682 5.80198 39.7492 6.32628Z" fill="white"/>
<path d="M16.7795 6.72041L16.2812 7.18853V15.2776V23.3668L16.7795 23.8349C17.1746 24.1906 17.4151 24.2843 17.8446 24.2094C18.5318 24.0783 30.0592 16.9254 30.5917 16.2888C31.0728 15.6896 31.0728 14.8657 30.5917 14.2665C30.0592 13.6299 18.5489 6.47699 17.8446 6.34592C17.4151 6.27102 17.1746 6.36464 16.7795 6.72041Z" fill="white"/>
</svg>
