<svg width="18" height="19" viewBox="0 0 18 19" fill="none" xmlns="http://www.w3.org/2000/svg">
<g clip-path="url(#clip0_708_234)">
<path d="M14.2252 7.71875C14.2252 9.42207 13.7308 10.9955 12.8978 12.2721L17.0991 16.9738C17.5139 17.4377 17.5139 18.191 17.0991 18.6549C16.6843 19.1187 16.0106 19.1187 15.5958 18.6549L11.3945 13.9531C10.2529 14.8883 8.84581 15.4375 7.32258 15.4375C3.50952 15.4375 0.419922 11.9826 0.419922 7.71875C0.419922 3.45488 3.50952 0 7.32258 0C11.1356 0 14.2252 3.45488 14.2252 7.71875ZM7.32258 13.0625C7.95013 13.0625 8.57154 12.9243 9.15133 12.6557C9.73112 12.3872 10.2579 11.9936 10.7017 11.4973C11.1454 11.0011 11.4974 10.412 11.7376 9.76371C11.9777 9.11538 12.1013 8.4205 12.1013 7.71875C12.1013 7.017 11.9777 6.32212 11.7376 5.67378C11.4974 5.02545 11.1454 4.43636 10.7017 3.94015C10.2579 3.44393 9.73112 3.05032 9.15133 2.78177C8.57154 2.51322 7.95013 2.375 7.32258 2.375C6.69502 2.375 6.07361 2.51322 5.49382 2.78177C4.91404 3.05032 4.38723 3.44393 3.94348 3.94015C3.49973 4.43636 3.14773 5.02545 2.90758 5.67378C2.66742 6.32212 2.54382 7.017 2.54382 7.71875C2.54382 8.4205 2.66742 9.11538 2.90758 9.76371C3.14773 10.412 3.49973 11.0011 3.94348 11.4973C4.38723 11.9936 4.91404 12.3872 5.49382 12.6557C6.07361 12.9243 6.69502 13.0625 7.32258 13.0625Z" fill="black"/>
</g>
<defs>
<clipPath id="clip0_708_234">
<rect width="16.9911" height="19" fill="white" transform="translate(0.419922)"/>
</clipPath>
</defs>
</svg>
